<mxfile host="app.diagrams.net" modified="2022-07-12T17:37:47.416Z" agent="5.0 (Windows NT 10.0; Win64; x64) AppleWebKit/537.36 (KHTML, like Gecko) Chrome/103.0.5060.114 Safari/537.36 Edg/103.0.1264.49" etag="I4lH6wUmUIT9i9Yy3wEl" version="17.1.2" type="github">
  <diagram id="d1iv59VKbl_Mmb0R--pS" name="Page-1">
    <mxGraphModel dx="1384" dy="772" grid="1" gridSize="10" guides="1" tooltips="1" connect="1" arrows="1" fold="1" page="1" pageScale="1" pageWidth="850" pageHeight="1100" math="0" shadow="0">
      <root>
        <mxCell id="0" />
        <mxCell id="1" parent="0" />
        <mxCell id="VtaVBKoWRDUFNebpUZWt-3" value="" style="edgeStyle=orthogonalEdgeStyle;rounded=0;orthogonalLoop=1;jettySize=auto;html=1;" edge="1" parent="1" source="VtaVBKoWRDUFNebpUZWt-1" target="VtaVBKoWRDUFNebpUZWt-2">
          <mxGeometry relative="1" as="geometry" />
        </mxCell>
        <mxCell id="VtaVBKoWRDUFNebpUZWt-1" value="START" style="ellipse;whiteSpace=wrap;html=1;" vertex="1" parent="1">
          <mxGeometry x="330" y="70" width="120" height="60" as="geometry" />
        </mxCell>
        <mxCell id="VtaVBKoWRDUFNebpUZWt-5" value="" style="edgeStyle=orthogonalEdgeStyle;rounded=0;orthogonalLoop=1;jettySize=auto;html=1;" edge="1" parent="1" source="VtaVBKoWRDUFNebpUZWt-2" target="VtaVBKoWRDUFNebpUZWt-4">
          <mxGeometry relative="1" as="geometry" />
        </mxCell>
        <mxCell id="VtaVBKoWRDUFNebpUZWt-2" value="Interface Design &amp;amp; Overall Planning" style="whiteSpace=wrap;html=1;" vertex="1" parent="1">
          <mxGeometry x="330" y="160" width="120" height="60" as="geometry" />
        </mxCell>
        <mxCell id="VtaVBKoWRDUFNebpUZWt-7" value="" style="edgeStyle=orthogonalEdgeStyle;rounded=0;orthogonalLoop=1;jettySize=auto;html=1;exitX=0.5;exitY=1;exitDx=0;exitDy=0;entryX=0.5;entryY=0;entryDx=0;entryDy=0;" edge="1" parent="1" source="VtaVBKoWRDUFNebpUZWt-4" target="VtaVBKoWRDUFNebpUZWt-9">
          <mxGeometry relative="1" as="geometry">
            <mxPoint x="510" y="400" as="targetPoint" />
          </mxGeometry>
        </mxCell>
        <mxCell id="VtaVBKoWRDUFNebpUZWt-8" value="" style="edgeStyle=orthogonalEdgeStyle;rounded=0;orthogonalLoop=1;jettySize=auto;html=1;" edge="1" parent="1" source="VtaVBKoWRDUFNebpUZWt-4" target="VtaVBKoWRDUFNebpUZWt-6">
          <mxGeometry relative="1" as="geometry" />
        </mxCell>
        <mxCell id="VtaVBKoWRDUFNebpUZWt-4" value="Work Division" style="whiteSpace=wrap;html=1;" vertex="1" parent="1">
          <mxGeometry x="330" y="260" width="120" height="60" as="geometry" />
        </mxCell>
        <mxCell id="VtaVBKoWRDUFNebpUZWt-11" value="" style="edgeStyle=orthogonalEdgeStyle;rounded=0;orthogonalLoop=1;jettySize=auto;html=1;" edge="1" parent="1" source="VtaVBKoWRDUFNebpUZWt-6" target="VtaVBKoWRDUFNebpUZWt-10">
          <mxGeometry relative="1" as="geometry" />
        </mxCell>
        <mxCell id="VtaVBKoWRDUFNebpUZWt-6" value="Application Frontend Development" style="whiteSpace=wrap;html=1;" vertex="1" parent="1">
          <mxGeometry x="240" y="390" width="120" height="60" as="geometry" />
        </mxCell>
        <mxCell id="VtaVBKoWRDUFNebpUZWt-9" value="Application Backend Development" style="whiteSpace=wrap;html=1;" vertex="1" parent="1">
          <mxGeometry x="420" y="390" width="120" height="60" as="geometry" />
        </mxCell>
        <mxCell id="VtaVBKoWRDUFNebpUZWt-12" style="edgeStyle=orthogonalEdgeStyle;rounded=0;orthogonalLoop=1;jettySize=auto;html=1;entryX=0;entryY=0.5;entryDx=0;entryDy=0;exitX=0;exitY=0.5;exitDx=0;exitDy=0;" edge="1" parent="1" source="VtaVBKoWRDUFNebpUZWt-10" target="VtaVBKoWRDUFNebpUZWt-6">
          <mxGeometry relative="1" as="geometry">
            <Array as="points">
              <mxPoint x="180" y="525" />
              <mxPoint x="180" y="420" />
            </Array>
          </mxGeometry>
        </mxCell>
        <mxCell id="VtaVBKoWRDUFNebpUZWt-13" value="No" style="edgeLabel;html=1;align=center;verticalAlign=middle;resizable=0;points=[];" vertex="1" connectable="0" parent="VtaVBKoWRDUFNebpUZWt-12">
          <mxGeometry x="-0.8026" relative="1" as="geometry">
            <mxPoint x="-1" y="-9" as="offset" />
          </mxGeometry>
        </mxCell>
        <mxCell id="VtaVBKoWRDUFNebpUZWt-19" value="" style="edgeStyle=orthogonalEdgeStyle;rounded=0;orthogonalLoop=1;jettySize=auto;html=1;" edge="1" parent="1" source="VtaVBKoWRDUFNebpUZWt-10" target="VtaVBKoWRDUFNebpUZWt-18">
          <mxGeometry relative="1" as="geometry" />
        </mxCell>
        <mxCell id="VtaVBKoWRDUFNebpUZWt-23" value="Yes" style="edgeLabel;html=1;align=center;verticalAlign=middle;resizable=0;points=[];" vertex="1" connectable="0" parent="VtaVBKoWRDUFNebpUZWt-19">
          <mxGeometry x="-0.8583" relative="1" as="geometry">
            <mxPoint x="13" y="2" as="offset" />
          </mxGeometry>
        </mxCell>
        <mxCell id="VtaVBKoWRDUFNebpUZWt-10" value="UI Completed?" style="rhombus;whiteSpace=wrap;html=1;" vertex="1" parent="1">
          <mxGeometry x="250" y="480" width="100" height="90" as="geometry" />
        </mxCell>
        <mxCell id="VtaVBKoWRDUFNebpUZWt-14" value="" style="edgeStyle=orthogonalEdgeStyle;rounded=0;orthogonalLoop=1;jettySize=auto;html=1;" edge="1" parent="1" target="VtaVBKoWRDUFNebpUZWt-17">
          <mxGeometry relative="1" as="geometry">
            <mxPoint x="480" y="450" as="sourcePoint" />
          </mxGeometry>
        </mxCell>
        <mxCell id="VtaVBKoWRDUFNebpUZWt-15" style="edgeStyle=orthogonalEdgeStyle;rounded=0;orthogonalLoop=1;jettySize=auto;html=1;entryX=1;entryY=0.5;entryDx=0;entryDy=0;exitX=1;exitY=0.5;exitDx=0;exitDy=0;" edge="1" parent="1" source="VtaVBKoWRDUFNebpUZWt-17" target="VtaVBKoWRDUFNebpUZWt-9">
          <mxGeometry relative="1" as="geometry">
            <mxPoint x="420" y="420" as="targetPoint" />
            <Array as="points">
              <mxPoint x="600" y="525" />
              <mxPoint x="600" y="420" />
            </Array>
          </mxGeometry>
        </mxCell>
        <mxCell id="VtaVBKoWRDUFNebpUZWt-16" value="No" style="edgeLabel;html=1;align=center;verticalAlign=middle;resizable=0;points=[];" vertex="1" connectable="0" parent="VtaVBKoWRDUFNebpUZWt-15">
          <mxGeometry x="-0.8026" relative="1" as="geometry">
            <mxPoint x="-1" y="-9" as="offset" />
          </mxGeometry>
        </mxCell>
        <mxCell id="VtaVBKoWRDUFNebpUZWt-20" value="" style="edgeStyle=orthogonalEdgeStyle;rounded=0;orthogonalLoop=1;jettySize=auto;html=1;" edge="1" parent="1" source="VtaVBKoWRDUFNebpUZWt-17" target="VtaVBKoWRDUFNebpUZWt-18">
          <mxGeometry relative="1" as="geometry" />
        </mxCell>
        <mxCell id="VtaVBKoWRDUFNebpUZWt-17" value="REST API Implemented&lt;br&gt;?" style="rhombus;whiteSpace=wrap;html=1;" vertex="1" parent="1">
          <mxGeometry x="430" y="480" width="100" height="90" as="geometry" />
        </mxCell>
        <mxCell id="VtaVBKoWRDUFNebpUZWt-22" value="" style="edgeStyle=orthogonalEdgeStyle;rounded=0;orthogonalLoop=1;jettySize=auto;html=1;" edge="1" parent="1" source="VtaVBKoWRDUFNebpUZWt-18" target="VtaVBKoWRDUFNebpUZWt-21">
          <mxGeometry relative="1" as="geometry" />
        </mxCell>
        <mxCell id="VtaVBKoWRDUFNebpUZWt-18" value="Integration Testing and Debugging" style="whiteSpace=wrap;html=1;" vertex="1" parent="1">
          <mxGeometry x="330" y="665" width="120" height="60" as="geometry" />
        </mxCell>
        <mxCell id="VtaVBKoWRDUFNebpUZWt-25" style="edgeStyle=orthogonalEdgeStyle;rounded=0;orthogonalLoop=1;jettySize=auto;html=1;entryX=0;entryY=0.5;entryDx=0;entryDy=0;exitX=0;exitY=0.5;exitDx=0;exitDy=0;" edge="1" parent="1" source="VtaVBKoWRDUFNebpUZWt-21" target="VtaVBKoWRDUFNebpUZWt-18">
          <mxGeometry relative="1" as="geometry">
            <Array as="points">
              <mxPoint x="260" y="815" />
              <mxPoint x="260" y="695" />
            </Array>
          </mxGeometry>
        </mxCell>
        <mxCell id="VtaVBKoWRDUFNebpUZWt-26" value="No" style="edgeLabel;html=1;align=center;verticalAlign=middle;resizable=0;points=[];" vertex="1" connectable="0" parent="VtaVBKoWRDUFNebpUZWt-25">
          <mxGeometry x="-0.8045" relative="1" as="geometry">
            <mxPoint y="-10" as="offset" />
          </mxGeometry>
        </mxCell>
        <mxCell id="VtaVBKoWRDUFNebpUZWt-28" value="" style="edgeStyle=orthogonalEdgeStyle;rounded=0;orthogonalLoop=1;jettySize=auto;html=1;" edge="1" parent="1" source="VtaVBKoWRDUFNebpUZWt-21" target="VtaVBKoWRDUFNebpUZWt-27">
          <mxGeometry relative="1" as="geometry" />
        </mxCell>
        <mxCell id="VtaVBKoWRDUFNebpUZWt-29" value="Yes" style="edgeLabel;html=1;align=center;verticalAlign=middle;resizable=0;points=[];" vertex="1" connectable="0" parent="VtaVBKoWRDUFNebpUZWt-28">
          <mxGeometry x="-0.6942" relative="1" as="geometry">
            <mxPoint x="10" y="4" as="offset" />
          </mxGeometry>
        </mxCell>
        <mxCell id="VtaVBKoWRDUFNebpUZWt-21" value="Application Complete?" style="rhombus;whiteSpace=wrap;html=1;" vertex="1" parent="1">
          <mxGeometry x="335" y="770" width="110" height="90" as="geometry" />
        </mxCell>
        <mxCell id="VtaVBKoWRDUFNebpUZWt-24" value="Yes" style="edgeLabel;html=1;align=center;verticalAlign=middle;resizable=0;points=[];" vertex="1" connectable="0" parent="1">
          <mxGeometry x="467.9999999999999" y="580.0033333333332" as="geometry">
            <mxPoint x="-2" y="3" as="offset" />
          </mxGeometry>
        </mxCell>
        <mxCell id="VtaVBKoWRDUFNebpUZWt-27" value="STOP" style="ellipse;whiteSpace=wrap;html=1;" vertex="1" parent="1">
          <mxGeometry x="330" y="900" width="120" height="50" as="geometry" />
        </mxCell>
      </root>
    </mxGraphModel>
  </diagram>
</mxfile>
